<svg width="39" height="39" xmlns="http://www.w3.org/2000/svg" fill="#828282">
  <path d="m1.039744,18.5366c0.03906,-0.4297 0.11719,-1.2578 0.17969,-2.0859c0.01562,-0.1954 -0.00782,-0.4141 -0.09375,-0.586c-3.13282,-6.24998 0.19531,-13.7031 6.95312,-15.492167c2.67192,-0.710937 5.25782,-0.390625 7.74222,0.843747c0.1953,0.09375 0.4453,0.14844 0.6562,0.125c5,-0.554684 10.25634,-0.49634 14.17824,2.67554c3.6563,2.96093 5.05616,7.95728 5.69676,12.63698c0.211,1.5469 0.1953,3.0859 0.0078,4.6328c-0.0312,0.2344 0.0235,0.5234 0.1407,0.7266c3.7734,6.6171 -0.2266,15 -7.75,16.1796c-2.6407,0.4141 -5.125,-0.0937 -7.4219,-1.4765c-0.1719,-0.1016 -0.4141,-0.1641 -0.6094,-0.1485c-7.5547,0.7266 -14.42968,-3.0468 -17.84374,-9.7968c-1.17188,-2.3203 -1.79688,-5.0078 -1.83594,-8.2344zm2.735133,0.4062c0.05469,3.9219 1.44856,6.547649 4.11262,9.508649c1.906265,2.11715 3.655376,3.368141 5.635934,4.206313c1.980557,0.838171 4.192561,1.067955 7.024611,0.751555c0.3516,-0.0391 1.050196,0.328195 1.354896,0.531295c1.21875,0.8047 2.168218,1.268022 3.337177,1.427633c1.168959,0.15961 2.381868,0.015508 3.776418,-0.394642c5.8984,-1.742199 8.077171,-6.579551 4.842771,-11.829551c-0.1719,-0.2735 -0.214864,-1.029742 -0.152364,-1.396942c0.375,-2.1015 0.022124,-4.11789 -0.446676,-6.20379c-1.8203,-8.02345 -7.23713,-12.40897 -15.79183,-11.21366c-0.4531,0.0625 -2.161764,-0.121951 -2.560164,-0.332891c-4.1719,-2.273434 -7.850618,-1.459604 -10.545928,2.454466c-2.17969,3.17187 -2.220273,5.357062 -0.462465,8.763362c0.125,0.25 0.073369,1.208208 0.034299,1.497308c-0.11718,0.9062 -0.073359,1.324695 -0.159299,2.230895z"/>
  <path d="m18.6241,28.9189c-1.6016,-0.0156 -3.1641,-0.2109 -4.6485,-0.8594c-0.9062,-0.3984 -1.7187,-0.9297 -2.3906,-1.6562c-0.6172,-0.6641 -0.9922,-1.4297 -0.9922,-2.3516c-0.0078,-1.4687 1.4609,-2.3515 2.7422,-1.625c0.3047,0.1719 0.5703,0.4532 0.8203,0.711c0.2656,0.2734 0.5,0.5625 0.7266,0.8672c1.0625,1.4062 2.5468,1.7499 4.1953,1.6562c0.7812,-0.0391 1.5078,-0.2578 2.1484,-0.7344c0.7344,-0.5547 1.1094,-1.2734 0.9453,-2.2031c-0.1562,-0.8828 -0.7968,-1.3203 -1.5859,-1.5391c-1.5313,-0.4218 -3.0703,-0.7968 -4.6094,-1.1796c-1.2031,-0.3047 -2.3828,-0.6407 -3.4062,-1.3907c-1.2266,-0.8906 -1.875,-2.1093 -1.9532,-3.6093c-0.1406,-2.7657 1.0704,-4.711 3.7032,-5.67974c3.1797,-1.17187 6.3125,-0.99218 9.289,0.71874c0.5547,0.3203 1.0625,0.7578 1.5,1.2266c0.3125,0.3359 0.5313,0.8125 0.6563,1.2578c0.2578,0.9062 -0.0078,1.5859 -0.6875,2.0156c-0.7656,0.4844 -1.7344,0.4688 -2.4063,-0.1015c-0.4453,-0.375 -0.8359,-0.8204 -1.2422,-1.2422c-0.4531,-0.4688 -1,-0.7891 -1.625,-0.961c-1.0781,-0.2968 -2.1562,-0.3437 -3.2343,-0.039c-0.6641,0.1875 -1.2032,0.5547 -1.5157,1.1953c-0.414,0.8359 -0.25,1.6406 0.5547,2.1015c0.6172,0.3594 1.3125,0.6329 2.0078,0.8125c1.4532,0.3829 2.9454,0.6563 4.3985,1.0391c0.6953,0.1875 1.3906,0.4531 2.0234,0.8047c2.1016,1.1641 2.8125,3.125 2.5625,5.3515c-0.289,2.5391 -1.9453,4.3204 -4.6484,4.9922c-1.0781,0.2657 -2.2031,0.3516 -3.3047,0.5157c-0.0156,-0.0235 -0.0156,-0.0625 -0.0234,-0.0938z"/>
</svg>
