<svg width="69" height="60" viewBox="0 0 69 60" fill="none" xmlns="http://www.w3.org/2000/svg">
  <path d="M3.63867 0L9.60416 54.082L34.7353 60L59.5111 54.082L65.4766 0H3.63867Z" fill="#FD982C"/>
  <path d="M34.7354 0V60L59.5112 54.082L65.4767 0H34.7354Z" fill="#FA502E"/>
  <path d="M53.1212 18.6782L26.7261 18.6777L27.1678 22.8763H52.9959L50.9086 46.3362L34.7136 50.4323L17.3309 45.7311V36.2174H28.129V39.0509L34.7157 40.8206L40.9565 39.0496L41.4108 32.0252H17.4984L14.7988 9.64648H53.1212V18.6782Z" fill="white"/>
  <path d="M34.7354 9.64648H53.1209V18.6782H34.7354V9.64648Z" fill="#DEECF1"/>
  <path d="M41.4105 32.0258L40.9562 39.0502L34.7354 40.8158V50.4275L50.9083 46.3369L52.9956 22.877H34.7354V32.0258H41.4105Z" fill="#DEECF1"/>
</svg>
