<svg xmlns="http://www.w3.org/2000/svg" xmlns:xlink="http://www.w3.org/1999/xlink"><symbol id="icon-2-stars" viewBox="0 0 131 22">
  <path d="M9.94099 3.75198C10.242 2.83425 11.5403 2.83425 11.8414 3.75198L12.9511 7.13489C13.0858 7.54555 13.4691 7.82319 13.9013 7.82319H17.472C18.443 7.82319 18.8443 9.06768 18.0561 9.63487L15.1838 11.7018C14.83 11.9564 14.6819 12.411 14.8178 12.8252L15.9187 16.1814C16.2204 17.101 15.17 17.8701 14.3845 17.3048L11.4753 15.2113C11.1264 14.9602 10.656 14.9602 10.3071 15.2113L7.39789 17.3048C6.61231 17.8701 5.56193 17.101 5.86361 16.1814L6.96459 12.8252C7.10047 12.411 6.95235 11.9564 6.59851 11.7018L3.72626 9.63487C2.93809 9.06769 3.33933 7.82319 4.31037 7.82319H7.88107C8.31325 7.82319 8.69654 7.54555 8.83125 7.13489L9.94099 3.75198Z" fill="#070707"/>
  <path d="M37.3507 3.75198C37.6517 2.83425 38.95 2.83425 39.251 3.75198L40.3608 7.13489C40.4955 7.54555 40.8788 7.82319 41.3109 7.82319H44.8816C45.8527 7.82319 46.2539 9.06768 45.4658 9.63487L42.5935 11.7018C42.2397 11.9564 42.0915 12.411 42.2274 12.8252L43.3284 16.1814C43.6301 17.101 42.5797 17.8701 41.7941 17.3048L38.8849 15.2113C38.536 14.9602 38.0657 14.9602 37.7167 15.2113L34.8076 17.3048C34.022 17.8701 32.9716 17.101 33.2733 16.1814L34.3743 12.8252C34.5101 12.411 34.362 11.9564 34.0082 11.7018L31.1359 9.63487C30.3478 9.06769 30.749 7.82319 31.72 7.82319H35.2907C35.7229 7.82319 36.1062 7.54555 36.2409 7.13489L37.3507 3.75198Z" fill="#070707"/>
  <path d="M92.17 3.75198C92.4711 2.83425 93.7693 2.83424 94.0704 3.75198L95.1801 7.13489C95.3148 7.54555 95.6981 7.82319 96.1303 7.82319H99.701C100.672 7.82319 101.073 9.06768 100.285 9.63487L97.4128 11.7018C97.059 11.9564 96.9109 12.411 97.0468 12.8252L98.1477 16.1814C98.4494 17.101 97.399 17.8701 96.6135 17.3048L93.7043 15.2113C93.3554 14.9602 92.885 14.9602 92.5361 15.2113L89.6269 17.3048C88.8413 17.8701 87.7909 17.101 88.0926 16.1814L89.1936 12.8252C89.3295 12.411 89.1814 11.9564 88.8275 11.7018L85.9553 9.63487C85.1671 9.06769 85.5683 7.82319 86.5394 7.82319H90.1101C90.5423 7.82319 90.9255 7.54555 91.0603 7.13489L92.17 3.75198Z" fill="#E5E5E5"/>
  <path d="M65.0439 3.8947C65.278 3.18087 66.2948 3.18087 66.529 3.8947L67.8965 8.06349C68.0012 8.38278 68.3009 8.59887 68.639 8.59887H73.0599C73.817 8.59887 74.1312 9.5615 73.5181 10.0027L69.9453 12.5738C69.6708 12.7713 69.5559 13.1221 69.6609 13.4422L71.0265 17.605C71.2608 18.3192 70.4382 18.9142 69.8258 18.4734L66.2446 15.8963C65.9713 15.6996 65.6016 15.6996 65.3282 15.8963L61.7471 18.4734C61.1346 18.9142 60.312 18.3192 60.5463 17.605L61.9119 13.4422C62.0169 13.1221 61.902 12.7713 61.6275 12.5738L58.0547 10.0027C57.4417 9.56151 57.7559 8.59887 58.5129 8.59887H62.9338C63.2719 8.59887 63.5716 8.38278 63.6763 8.06349L65.0439 3.8947Z" fill="#E5E5E5"/>
  <path d="M119.58 3.75198C119.881 2.83425 121.179 2.83425 121.48 3.75198L122.59 7.13489C122.724 7.54555 123.108 7.82319 123.54 7.82319H127.111C128.082 7.82319 128.483 9.06768 127.695 9.63487L124.823 11.7018C124.469 11.9564 124.321 12.411 124.456 12.8252L125.557 16.1814C125.859 17.101 124.809 17.8701 124.023 17.3048L121.114 15.2113C120.765 14.9602 120.295 14.9602 119.946 15.2113L117.037 17.3048C116.251 17.8701 115.201 17.101 115.502 16.1814L116.603 12.8252C116.739 12.411 116.591 11.9564 116.237 11.7018L113.365 9.63487C112.577 9.06769 112.978 7.82319 113.949 7.82319H117.52C117.952 7.82319 118.335 7.54555 118.47 7.13489L119.58 3.75198Z" fill="#E5E5E5"/>
</symbol><symbol id="icon-3-stars" viewBox="0 0 130 22">
  <path d="M9.23056 3.73209C9.53164 2.8144 10.8298 2.8144 11.1309 3.73209L12.2406 7.11461C12.3754 7.52525 12.7586 7.80288 13.1908 7.80288L16.7613 7.80288C17.7323 7.80288 18.1335 9.04743 17.3453 9.61459L14.4735 11.681C14.1196 11.9356 13.9715 12.3902 14.1074 12.8044L15.2082 16.1599C15.5099 17.0795 14.4596 17.8487 13.674 17.2834L10.7648 15.1901C10.4159 14.939 9.94558 14.939 9.59667 15.1901L6.68746 17.2834C5.90186 17.8487 4.85152 17.0795 5.15323 16.1599L6.2541 12.8044C6.39001 12.3902 6.24187 11.9356 5.88799 11.681L3.01614 9.61459C2.22792 9.04743 2.62914 7.80288 3.6002 7.80288L7.17065 7.80288C7.60283 7.80288 7.9861 7.52525 8.12082 7.11461L9.23056 3.73209Z" fill="#070707"/>
  <path d="M36.6402 3.73209C36.9413 2.8144 38.2395 2.8144 38.5406 3.73209L39.6503 7.11461C39.785 7.52525 40.1683 7.80288 40.6005 7.80288L44.1709 7.80288C45.142 7.80288 45.5432 9.04743 44.755 9.61459L41.8831 11.681C41.5293 11.9356 41.3811 12.3902 41.517 12.8044L42.6179 16.1599C42.9196 17.0795 41.8693 17.8487 41.0837 17.2834L38.1745 15.1901C37.8256 14.939 37.3552 14.939 37.0063 15.1901L34.0971 17.2834C33.3115 17.8487 32.2612 17.0795 32.5629 16.1599L33.6638 12.8044C33.7997 12.3902 33.6515 11.9356 33.2977 11.681L30.4258 9.61459C29.6376 9.04743 30.0388 7.80288 31.0099 7.80288L34.5803 7.80288C35.0125 7.80288 35.3958 7.52525 35.5305 7.11461L36.6402 3.73209Z" fill="#070707"/>
  <path d="M64.0499 3.73209C64.351 2.8144 65.6492 2.8144 65.9502 3.73209L67.06 7.11461C67.1947 7.52525 67.578 7.80288 68.0101 7.80288L71.5806 7.80288C72.5517 7.80288 72.9529 9.04743 72.1647 9.61459L69.2928 11.681C68.9389 11.9356 68.7908 12.3902 68.9267 12.8044L70.0276 16.1599C70.3293 17.0795 69.2789 17.8487 68.4933 17.2834L65.5841 15.1901C65.2352 14.939 64.7649 14.939 64.416 15.1901L61.5068 17.2834C60.7212 17.8487 59.6709 17.0795 59.9726 16.1599L61.0734 12.8044C61.2093 12.3902 61.0612 11.9356 60.7073 11.681L57.8355 9.61459C57.0473 9.04743 57.4485 7.80288 58.4195 7.80288L61.99 7.80288C62.4222 7.80288 62.8054 7.52525 62.9402 7.11461L64.0499 3.73209Z" fill="#070707"/>
  <path d="M92.8848 3.88795L93.9946 7.27048C94.1966 7.88643 94.7716 8.30288 95.4198 8.30288L98.9903 8.30288C99.4758 8.30288 99.6764 8.92515 99.2823 9.20873L96.4105 11.2752C95.8796 11.6571 95.6574 12.3389 95.8613 12.9603L96.9622 16.3158C97.113 16.7756 96.5878 17.1602 96.195 16.8775L93.2858 14.7842C92.7625 14.4076 92.057 14.4076 91.5336 14.7842L88.6244 16.8775C88.2316 17.1602 87.7065 16.7756 87.8573 16.3158L88.9582 12.9603C89.162 12.3389 88.9399 11.6571 88.409 11.2752L85.5372 9.20873C85.1431 8.92515 85.3437 8.30288 85.8292 8.30288L89.3997 8.30288C90.0479 8.30288 90.6228 7.88644 90.8249 7.27048L91.9347 3.88795C92.0852 3.42911 92.7343 3.42911 92.8848 3.88795Z" fill="#C4C4C4" stroke="#C4C4C4"/>
  <path d="M118.869 3.73209C119.17 2.8144 120.468 2.8144 120.77 3.73209L121.879 7.11461C122.014 7.52525 122.397 7.80288 122.829 7.80288L126.4 7.80288C127.371 7.80288 127.772 9.04743 126.984 9.61459L124.112 11.681C123.758 11.9356 123.61 12.3902 123.746 12.8044L124.847 16.1599C125.149 17.0795 124.098 17.8487 123.313 17.2834L120.403 15.1901C120.055 14.939 119.584 14.939 119.235 15.1901L116.326 17.2834C115.541 17.8487 114.49 17.0795 114.792 16.1599L115.893 12.8044C116.029 12.3902 115.881 11.9356 115.527 11.681L112.655 9.61459C111.867 9.04743 112.268 7.80288 113.239 7.80288L116.809 7.80288C117.241 7.80288 117.625 7.52525 117.759 7.11461L118.869 3.73209Z" fill="#C4C4C4"/>
</symbol><symbol id="icon-4-stars" viewBox="0 0 130 22">
  <path d="M9.23056 3.73209C9.53164 2.8144 10.8298 2.8144 11.1309 3.73209L12.2406 7.11461C12.3754 7.52525 12.7586 7.80288 13.1908 7.80288L16.7613 7.80288C17.7323 7.80288 18.1335 9.04743 17.3453 9.61459L14.4735 11.681C14.1196 11.9356 13.9715 12.3902 14.1074 12.8044L15.2082 16.1599C15.5099 17.0795 14.4596 17.8487 13.674 17.2834L10.7648 15.1901C10.4159 14.939 9.94558 14.939 9.59667 15.1901L6.68746 17.2834C5.90186 17.8487 4.85152 17.0795 5.15323 16.1599L6.2541 12.8044C6.39001 12.3902 6.24187 11.9356 5.88799 11.681L3.01614 9.61459C2.22792 9.04743 2.62914 7.80288 3.6002 7.80288L7.17065 7.80288C7.60283 7.80288 7.9861 7.52525 8.12082 7.11461L9.23056 3.73209Z" fill="#070707"/>
  <path d="M36.6402 3.73209C36.9413 2.8144 38.2395 2.8144 38.5406 3.73209L39.6503 7.11461C39.785 7.52525 40.1683 7.80288 40.6005 7.80288L44.1709 7.80288C45.142 7.80288 45.5432 9.04743 44.755 9.61459L41.8831 11.681C41.5293 11.9356 41.3811 12.3902 41.517 12.8044L42.6179 16.1599C42.9196 17.0795 41.8693 17.8487 41.0837 17.2834L38.1745 15.1901C37.8256 14.939 37.3552 14.939 37.0063 15.1901L34.0971 17.2834C33.3115 17.8487 32.2612 17.0795 32.5629 16.1599L33.6638 12.8044C33.7997 12.3902 33.6515 11.9356 33.2977 11.681L30.4258 9.61459C29.6376 9.04743 30.0388 7.80288 31.0099 7.80288L34.5803 7.80288C35.0125 7.80288 35.3958 7.52525 35.5305 7.11461L36.6402 3.73209Z" fill="#070707"/>
  <path d="M64.0497 3.73209C64.3507 2.8144 65.6489 2.8144 65.95 3.73209L67.0597 7.11461C67.1945 7.52525 67.5777 7.80288 68.0099 7.80288L71.5804 7.80288C72.5514 7.80288 72.9526 9.04743 72.1644 9.61459L69.2926 11.681C68.9387 11.9356 68.7906 12.3902 68.9265 12.8044L70.0273 16.1599C70.329 17.0795 69.2787 17.8487 68.4931 17.2834L65.5839 15.1901C65.235 14.939 64.7647 14.939 64.4158 15.1901L61.5066 17.2834C60.7209 17.8487 59.6706 17.0795 59.9723 16.1599L61.0732 12.8044C61.2091 12.3902 61.061 11.9356 60.7071 11.681L57.8352 9.61459C57.047 9.04743 57.4482 7.80288 58.4193 7.80288L61.9897 7.80288C62.4219 7.80288 62.8052 7.52525 62.9399 7.11461L64.0497 3.73209Z" fill="#070707"/>
  <path d="M91.4596 3.73209C91.7606 2.8144 93.0588 2.8144 93.3599 3.73209L94.4696 7.11461C94.6044 7.52525 94.9876 7.80288 95.4198 7.80288L98.9903 7.80288C99.9613 7.80288 100.363 9.04743 99.5743 9.61459L96.7025 11.681C96.3486 11.9356 96.2005 12.3902 96.3364 12.8044L97.4372 16.1599C97.7389 17.0795 96.6886 17.8487 95.903 17.2834L92.9938 15.1901C92.6449 14.939 92.1746 14.939 91.8257 15.1901L88.9165 17.2834C88.1309 17.8487 87.0805 17.0795 87.3822 16.1599L88.4831 12.8044C88.619 12.3902 88.4709 11.9356 88.117 11.681L85.2451 9.61459C84.4569 9.04743 84.8581 7.80288 85.8292 7.80288L89.3997 7.80288C89.8318 7.80288 90.2151 7.52525 90.3498 7.11461L91.4596 3.73209Z" fill="#070707"/>
  <path d="M118.869 3.73209C119.17 2.8144 120.468 2.8144 120.769 3.73209L121.879 7.11461C122.014 7.52525 122.397 7.80288 122.829 7.80288L126.4 7.80288C127.371 7.80288 127.772 9.04743 126.984 9.61459L124.112 11.681C123.758 11.9356 123.61 12.3902 123.746 12.8044L124.847 16.1599C125.148 17.0795 124.098 17.8487 123.312 17.2834L120.403 15.1901C120.054 14.939 119.584 14.939 119.235 15.1901L116.326 17.2834C115.54 17.8487 114.49 17.0795 114.792 16.1599L115.893 12.8044C116.028 12.3902 115.88 11.9356 115.526 11.681L112.655 9.61459C111.866 9.04743 112.268 7.80288 113.239 7.80288L116.809 7.80288C117.241 7.80288 117.625 7.52525 117.759 7.11461L118.869 3.73209Z" fill="#E5E5E5"/>
</symbol><symbol id="icon-5-stars" viewBox="0 0 130 22">
  <path d="M9.23056 3.73209C9.53164 2.8144 10.8298 2.8144 11.1309 3.73209L12.2406 7.11461C12.3754 7.52525 12.7586 7.80288 13.1908 7.80288L16.7613 7.80288C17.7323 7.80288 18.1335 9.04743 17.3453 9.61459L14.4735 11.681C14.1196 11.9356 13.9715 12.3902 14.1074 12.8044L15.2082 16.1599C15.5099 17.0795 14.4596 17.8487 13.674 17.2834L10.7648 15.1901C10.4159 14.939 9.94558 14.939 9.59667 15.1901L6.68746 17.2834C5.90186 17.8487 4.85152 17.0795 5.15323 16.1599L6.2541 12.8044C6.39001 12.3902 6.24187 11.9356 5.88799 11.681L3.01614 9.61459C2.22792 9.04743 2.62914 7.80288 3.6002 7.80288L7.17065 7.80288C7.60283 7.80288 7.9861 7.52525 8.12082 7.11461L9.23056 3.73209Z" fill="#070707"/>
  <path d="M36.6402 3.73209C36.9413 2.8144 38.2395 2.8144 38.5406 3.73209L39.6503 7.11461C39.785 7.52525 40.1683 7.80288 40.6005 7.80288L44.1709 7.80288C45.142 7.80288 45.5432 9.04743 44.755 9.61459L41.8831 11.681C41.5293 11.9356 41.3811 12.3902 41.517 12.8044L42.6179 16.1599C42.9196 17.0795 41.8693 17.8487 41.0837 17.2834L38.1745 15.1901C37.8256 14.939 37.3552 14.939 37.0063 15.1901L34.0971 17.2834C33.3115 17.8487 32.2612 17.0795 32.5629 16.1599L33.6638 12.8044C33.7997 12.3902 33.6515 11.9356 33.2977 11.681L30.4258 9.61459C29.6376 9.04743 30.0388 7.80288 31.0099 7.80288L34.5803 7.80288C35.0125 7.80288 35.3958 7.52525 35.5305 7.11461L36.6402 3.73209Z" fill="#070707"/>
  <path d="M64.0499 3.73209C64.351 2.8144 65.6492 2.8144 65.9502 3.73209L67.06 7.11461C67.1947 7.52525 67.578 7.80288 68.0101 7.80288L71.5806 7.80288C72.5517 7.80288 72.9529 9.04743 72.1647 9.61459L69.2928 11.681C68.9389 11.9356 68.7908 12.3902 68.9267 12.8044L70.0276 16.1599C70.3293 17.0795 69.2789 17.8487 68.4933 17.2834L65.5841 15.1901C65.2352 14.939 64.7649 14.939 64.416 15.1901L61.5068 17.2834C60.7212 17.8487 59.6709 17.0795 59.9726 16.1599L61.0734 12.8044C61.2093 12.3902 61.0612 11.9356 60.7073 11.681L57.8355 9.61459C57.0473 9.04743 57.4485 7.80288 58.4195 7.80288L61.99 7.80288C62.4222 7.80288 62.8054 7.52525 62.9402 7.11461L64.0499 3.73209Z" fill="#070707"/>
  <path d="M91.4596 3.73209C91.7606 2.8144 93.0588 2.8144 93.3599 3.73209L94.4696 7.11461C94.6044 7.52525 94.9876 7.80288 95.4198 7.80288L98.9903 7.80288C99.9613 7.80288 100.363 9.04743 99.5743 9.61459L96.7025 11.681C96.3486 11.9356 96.2005 12.3902 96.3364 12.8044L97.4372 16.1599C97.7389 17.0795 96.6886 17.8487 95.903 17.2834L92.9938 15.1901C92.6449 14.939 92.1746 14.939 91.8257 15.1901L88.9165 17.2834C88.1309 17.8487 87.0805 17.0795 87.3822 16.1599L88.4831 12.8044C88.619 12.3902 88.4709 11.9356 88.117 11.681L85.2451 9.61459C84.4569 9.04743 84.8581 7.80288 85.8292 7.80288L89.3997 7.80288C89.8318 7.80288 90.2151 7.52525 90.3498 7.11461L91.4596 3.73209Z" fill="#070707"/>
  <path d="M118.869 3.73209C119.17 2.8144 120.468 2.8144 120.77 3.73209L121.879 7.11461C122.014 7.52525 122.397 7.80288 122.829 7.80288L126.4 7.80288C127.371 7.80288 127.772 9.04743 126.984 9.61459L124.112 11.681C123.758 11.9356 123.61 12.3902 123.746 12.8044L124.847 16.1599C125.149 17.0795 124.098 17.8487 123.313 17.2834L120.403 15.1901C120.055 14.939 119.584 14.939 119.235 15.1901L116.326 17.2834C115.541 17.8487 114.49 17.0795 114.792 16.1599L115.893 12.8044C116.029 12.3902 115.881 11.9356 115.527 11.681L112.655 9.61459C111.867 9.04743 112.268 7.80288 113.239 7.80288L116.809 7.80288C117.241 7.80288 117.625 7.52525 117.759 7.11461L118.869 3.73209Z" fill="black"/>
</symbol><symbol id="icon-adaptive" viewBox="0 0 69 61">
  <path d="M56.5868 0.322266C55.677 0.322266 8.62901 0.322266 8.36527 0.322266C5.85351 0.322266 3.81006 2.36572 3.81006 4.87748V39.0454C3.81006 41.2669 5.45636 43.1922 7.64711 43.5432L8.46756 44.1982H55.7768L57.3051 43.5432C59.4959 43.1922 61.1422 41.2669 61.1422 39.0454C61.1422 37.9085 61.1422 5.90574 61.1422 4.87748C61.142 2.36572 59.0986 0.322266 56.5868 0.322266V0.322266Z" fill="#365E7D"/>
  <path d="M8.15544 39.0454V4.87748C8.15544 2.36572 10.1989 0.322266 12.7107 0.322266C10.0581 0.322266 8.41392 0.322266 8.36527 0.322266C5.85351 0.322266 3.81006 2.36572 3.81006 4.87748V39.0454C3.81006 41.2669 5.45636 43.1922 7.64711 43.5432L8.46756 44.1982H12.8129L11.9925 43.5432C9.80174 43.1922 8.15544 41.2669 8.15544 39.0454V39.0454Z" fill="#2B4D66"/>
  <path d="M56.4956 8.36914H8.729L7.90234 9.23204V38.672C7.90234 39.1233 8.26823 39.4894 8.71956 39.4894H56.2327C56.684 39.4894 57.0499 39.1233 57.0499 38.672C57.0499 37.9002 57.0499 10.1253 57.0499 9.23204L56.4956 8.36914Z" fill="#E4F6FF"/>
  <path d="M13.2149 38.672V9.23204L14.0416 8.36914H8.729L7.90234 9.23204V38.672C7.90234 39.1233 8.26823 39.4894 8.71956 39.4894H14.0322C13.581 39.4894 13.2149 39.1233 13.2149 38.672Z" fill="#D3EFFB"/>
  <path d="M13.2149 4.38477H8.71956C8.26823 4.38477 7.90234 4.75065 7.90234 5.20212V9.23175H13.2149L13.5644 8.85898V4.64419L13.2149 4.38477Z" fill="#DD636E"/>
  <path d="M56.2327 4.38477C54.1221 4.38477 14.8876 4.38477 13.2148 4.38477V9.23175H57.0498V5.20212C57.0499 4.75079 56.684 4.38477 56.2327 4.38477V4.38477Z" fill="#B1E4F9"/>
  <path d="M64.1918 43.5449H0.760617C0.340553 43.5449 0 43.8887 0 44.313V46.9546C0 48.9147 1.58821 50.5184 3.52924 50.5184H61.4231C63.3641 50.5184 64.9523 48.9147 64.9523 46.9546V44.313C64.9524 43.8887 64.6119 43.5449 64.1918 43.5449Z" fill="#407093"/>
  <path d="M7.90239 46.9527V44.311C7.90239 43.8869 8.24294 43.543 8.663 43.543H0.760617C0.340553 43.543 0 43.8868 0 44.311V46.9527C0 48.9127 1.58821 50.5164 3.52924 50.5164H11.4316C9.4906 50.5164 7.90239 48.9127 7.90239 46.9527V46.9527Z" fill="#365E7D"/>
  <path d="M68.2765 53.0652V25.9466L68.9997 25.2622C68.9997 23.5503 68.9997 22.4335 68.9997 22.2156C68.9997 20.6511 67.7314 19.3828 66.1669 19.3828H48.7805C47.216 19.3828 45.9478 20.6511 45.9478 22.2156V25.2622L46.7576 25.9929V53.3202L45.9478 53.8215V57.8469C45.9478 59.4114 47.216 60.6797 48.7805 60.6797H66.1669C67.7314 60.6797 68.9997 59.4114 68.9997 57.8469C68.9997 57.5898 68.9997 56.0822 68.9997 53.8215L68.2765 53.0652Z" fill="#365E7D"/>
  <path d="M50.1243 57.8468V53.8214L50.9341 53.32V25.9929L50.1243 25.2622V22.2156C50.1243 20.6511 51.3926 19.3828 52.9571 19.3828H48.7805C47.216 19.3828 45.9478 20.6511 45.9478 22.2156V25.2622L46.7576 25.9929V53.3202L45.9478 53.8215V57.8469C45.9478 59.4114 47.216 60.6797 48.7805 60.6797H52.9571C51.3926 60.6796 50.1243 59.4113 50.1243 57.8468V57.8468Z" fill="#294B64"/>
  <path d="M31.7819 33.0668C36.5908 33.0668 40.4891 29.1684 40.4891 24.3596C40.4891 19.5507 36.5908 15.6523 31.7819 15.6523C26.9731 15.6523 23.0747 19.5507 23.0747 24.3596C23.0747 29.1684 26.9731 33.0668 31.7819 33.0668Z" fill="#DD636E"/>
  <path d="M26.4067 24.3596C26.4067 20.1206 29.4362 16.591 33.4479 15.8134C32.9084 15.7088 32.3518 15.6523 31.7819 15.6523C26.9731 15.6523 23.0747 19.5507 23.0747 24.3596C23.0747 29.1684 26.9731 33.0668 31.7819 33.0668C32.3518 33.0668 32.9084 33.0103 33.4479 32.9057C29.4362 32.1281 26.4067 28.5985 26.4067 24.3596V24.3596Z" fill="#DA4A54"/>
  <path d="M35.3253 23.4591L30.8571 20.4123C30.1326 19.9182 29.1509 20.4371 29.1509 21.314V27.4076C29.1509 28.2845 30.1326 28.8033 30.8571 28.3093L35.3253 25.2625C35.9607 24.8292 35.9607 23.8923 35.3253 23.4591Z" fill="#F4FBFF"/>
  <path d="M32.4828 21.5207L30.8571 20.4123C30.1326 19.9182 29.1509 20.4371 29.1509 21.314V27.4076C29.1509 28.2845 30.1326 28.8033 30.8571 28.3093L32.4828 27.2008V21.5207Z" fill="#E4F6FF"/>
  <path d="M45.9478 29.2324H68.9997V53.8215H45.9478V29.2324Z" fill="#90D8F9"/>
  <path d="M45.9478 29.2324H50.124V53.8215H45.9478V29.2324Z" fill="#75CEF9"/>
  <path d="M58.5808 58.0707H56.3674C55.7923 58.0707 55.3262 57.6045 55.3262 57.0295C55.3262 56.4544 55.7923 55.9883 56.3674 55.9883H58.5808C59.1558 55.9883 59.622 56.4544 59.622 57.0295C59.622 57.6045 59.1558 58.0707 58.5808 58.0707Z" fill="#365E7D"/>
  <path d="M57.4736 49.0625C61.6589 49.0625 65.0518 45.6697 65.0518 41.4844C65.0518 37.2991 61.6589 33.9062 57.4736 33.9062C53.2884 33.9062 49.8955 37.2991 49.8955 41.4844C49.8955 45.6697 53.2884 49.0625 57.4736 49.0625Z" fill="#DD636E"/>
  <path d="M52.7589 41.4865C52.7589 37.7908 55.4049 34.7148 58.9054 34.0451C58.4415 33.9564 57.9634 33.9082 57.4736 33.9082C53.2884 33.9082 49.8955 37.3011 49.8955 41.4865C49.8955 45.6718 53.2884 49.0646 57.4736 49.0646C57.9634 49.0646 58.4415 49.0164 58.9054 48.9277C55.4049 48.2582 52.7589 45.182 52.7589 41.4865Z" fill="#DA4A54"/>
  <path d="M45.9478 25.2617H50.1935V29.4292H45.9478V25.2617Z" fill="#DD636E"/>
  <path d="M50.124 25.2617V29.4292H68.9999V25.2617C66.7055 25.2617 52.445 25.2617 50.124 25.2617V25.2617Z" fill="#B1E4F9"/>
  <path d="M60.558 40.7011L56.6692 38.0495C56.0386 37.6196 55.1841 38.0712 55.1841 38.8344V44.1378C55.1841 44.901 56.0386 45.3526 56.6692 44.9227L60.558 42.2709C61.1111 41.8937 61.1111 41.0782 60.558 40.7011Z" fill="#F4FBFF"/>
  <path d="M58.0476 38.9894L56.6692 38.0495C56.0386 37.6196 55.1841 38.0711 55.1841 38.8344V44.1378C55.1841 44.901 56.0386 45.3526 56.6692 44.9226L58.0476 43.9827V38.9894Z" fill="#E4F6FF"/>
</symbol><symbol id="icon-bem" viewBox="0 0 69 60">
  <path d="M0 9.28583H16.1314V14.2858H0V9.28583ZM0 0H16.1314V4.99995H0V0ZM28.9423 18.5001H0V23.5H27.8577C30.9077 23.5 38.0244 23.5713 40.668 28.0714V25.2858C39.3801 20.857 35.5846 18.5001 28.942 18.5001H28.9423ZM29.0096 27.7856H0V32.7856H27.8577C34.6356 32.7856 38.9058 33.0713 40.668 34.0714V31.8571C39.3122 28.3571 33.6189 27.7856 29.0099 27.7856H29.0096ZM28.9423 51.357H0V46.357H27.8577C30.9077 46.357 38.0244 46.2857 40.668 41.7857V44.5712C39.3801 49 35.5846 51.357 28.942 51.357H28.9423ZM29.0096 42.0714H0V37.0715H27.8577C34.6356 37.0715 38.9058 36.7857 40.668 35.7856V38C39.3122 41.4999 33.6189 42.0714 29.0099 42.0714H29.0096ZM47.717 60H69V56.9284H48.327C46.4968 56.9284 42.1593 56.8571 40.6003 54.2141V55.9286C41.3458 58.5713 43.6503 60 47.717 60V60ZM47.6494 54.357H68.9323V51.2857H48.327C44.1923 51.2857 41.6167 51.1428 40.6 50.5V51.8571C41.4132 53.9999 44.8699 54.357 47.6491 54.357H47.6494Z" fill="#010101"/>
</symbol><symbol id="icon-browser" viewBox="0 0 70 70">
<path d="M3.52881 69.6543H66.7788C67.5413 69.6543 68.2726 69.3514 68.8117 68.8122C69.3509 68.2731 69.6538 67.5418 69.6538 66.7793V15.0293H0.653809V66.7793C0.653809 67.5418 0.956709 68.2731 1.49588 68.8122C2.03504 69.3514 2.76631 69.6543 3.52881 69.6543Z" fill="#40495A"/>
<path d="M66.7788 0.654297H3.52881C2.76631 0.654297 2.03504 0.957198 1.49588 1.49636C0.956709 2.03553 0.653809 2.7668 0.653809 3.5293V15.0293H69.6538V3.5293C69.6538 2.7668 69.3509 2.03553 68.8117 1.49636C68.2726 0.957198 67.5413 0.654297 66.7788 0.654297Z" fill="#EAE8E8"/>
<path d="M15.0288 6.40625H6.40381V9.28125H15.0288V6.40625Z" fill="#D7D4D4"/>
<path d="M63.9043 6.40625H20.7793V9.28125H63.9043V6.40625Z" fill="#D7D4D4"/>
<path d="M12.1538 58.1543H6.40381V61.0293H12.1538V58.1543Z" fill="#748191"/>
<path d="M12.1538 46.6543H6.40381V49.5293H12.1538V46.6543Z" fill="#748191"/>
<path d="M12.1538 52.4043H6.40381V55.2793H12.1538V52.4043Z" fill="#748191"/>
<path d="M12.1538 35.1543H6.40381V38.0293H12.1538V35.1543Z" fill="#748191"/>
<path d="M12.1538 40.9043H6.40381V43.7793H12.1538V40.9043Z" fill="#748191"/>
<path d="M12.1538 23.6543H6.40381V26.5293H12.1538V23.6543Z" fill="#748191"/>
<path d="M12.1538 29.4043H6.40381V32.2793H12.1538V29.4043Z" fill="#748191"/>
<path d="M20.7788 40.9043H16.4663V43.7793H20.7788V40.9043Z" fill="#FFCD02"/>
<path d="M38.0283 40.9043H23.6533V43.7793H38.0283V40.9043Z" fill="#2ECC71"/>
<path d="M46.6538 40.9043H40.9038V43.7793H46.6538V40.9043Z" fill="#FF6E40"/>
<path d="M58.1538 40.9043H49.5288V43.7793H58.1538V40.9043Z" fill="#26C6DA"/>
<path d="M25.0913 35.1543H16.4663V38.0293H25.0913V35.1543Z" fill="#2ECC71"/>
<path d="M42.3413 35.1543H27.9663V38.0293H42.3413V35.1543Z" fill="#26C6DA"/>
<path d="M53.8413 35.1543H45.2163V38.0293H53.8413V35.1543Z" fill="#FF6E40"/>
<path d="M25.0913 46.6543H16.4663V49.5293H25.0913V46.6543Z" fill="#FF6E40"/>
<path d="M32.2788 46.6543H27.9663V49.5293H32.2788V46.6543Z" fill="#26C6DA"/>
<path d="M40.9038 46.6543H35.1538V49.5293H40.9038V46.6543Z" fill="#FFCD02"/>
<path d="M55.2788 46.6543H43.7788V49.5293H55.2788V46.6543Z" fill="#2ECC71"/>
<path d="M61.0283 46.6543H58.1533V49.5293H61.0283V46.6543Z" fill="#FFCD02"/>
<path d="M19.3413 29.4043H16.4663V32.2793H19.3413V29.4043Z" fill="#26C6DA"/>
<path d="M45.2163 29.4043H22.2163V32.2793H45.2163V29.4043Z" fill="#FFCD02"/>
<path d="M61.0288 29.4043H48.0913V32.2793H61.0288V29.4043Z" fill="#2ECC71"/>
<path d="M22.2163 23.6543H16.4663V26.5293H22.2163V23.6543Z" fill="#FF6E40"/>
<path d="M36.5913 23.6543H25.0913V26.5293H36.5913V23.6543Z" fill="#FF6E40"/>
<path d="M43.7783 23.6543H39.4658V26.5293H43.7783V23.6543Z" fill="#FFCD02"/>
<path d="M63.9038 23.6543H46.6538V26.5293H63.9038V23.6543Z" fill="#26C6DA"/>
<path d="M38.0288 52.4043H16.4663V55.2793H38.0288V52.4043Z" fill="#FFCD02"/>
<path d="M52.4038 52.4043H40.9038V55.2793H52.4038V52.4043Z" fill="#26C6DA"/>
<path d="M63.9033 52.4043H55.2783V55.2793H63.9033V52.4043Z" fill="#FF6E40"/>
<path d="M22.2163 58.1543H16.4663V61.0293H22.2163V58.1543Z" fill="#26C6DA"/>
<path d="M33.7163 58.1543H25.0913V61.0293H33.7163V58.1543Z" fill="#2ECC71"/>
<path d="M49.5283 58.1543H36.5908V61.0293H49.5283V58.1543Z" fill="#FF6E40"/>
<path d="M58.1538 58.1543H52.4038V61.0293H58.1538V58.1543Z" fill="#FFCD02"/>
</symbol><symbol id="icon-css3" viewBox="0 0 69 60">
  <path d="M4.3125 0L9.81094 54L34.5 60L59.1804 54.0038L64.6875 0H4.3125Z" fill="#2196F3"/>
  <path d="M52.9313 17.6588L52.237 24.4425L50.1412 44.7788L34.4997 48.54L34.4868 48.5438L18.854 44.7788L17.7629 34.1438H25.4219L25.9912 39.66L34.4911 41.655L34.4954 41.6513L43.0083 39.6563L44.1683 30.465L17.3963 30.5288L16.6373 24.2438L44.8109 23.955L45.3802 17.2275L15.8827 17.2988L15.3867 11.04H34.4997H53.6127L52.9313 17.6588Z" fill="#FAFAFA"/>
</symbol><symbol id="icon-es6" viewBox="0 0 69 69">
  <path d="M0 0H69V69H0V0Z" fill="#F26522"/>
  <path d="M28.4453 43.1135H38.9994V40.2422H31.7048V35.7931H38.4304V32.9218H31.7048V28.757H38.9994V25.8857H28.4453V43.1135V43.1135ZM53.0973 38.4315C53.0973 34.9909 52.8644 34.2408 48.2341 33.1285C45.2593 32.4043 45.2075 32.3525 45.2075 30.3866C45.2075 28.8864 45.5956 28.4206 47.7945 28.4206C49.2947 28.4206 50.976 28.6276 52.3989 28.9381L52.7611 26.1962C51.0537 25.8081 49.2429 25.627 47.7425 25.627C43.3709 25.627 41.9483 27.1792 41.9483 30.3089C41.9483 33.9565 42.5173 34.7583 46.6821 35.6896C49.7863 36.362 49.8381 36.517 49.8381 38.4315C49.8381 40.0869 49.4499 40.5786 47.0959 40.5786C45.3886 40.5786 43.8367 40.2681 42.233 39.7764L41.6637 42.3375C42.8019 42.8806 45.0784 43.3722 47.0444 43.3722C52.1401 43.3722 53.0973 41.6906 53.0973 38.4315V38.4315ZM59.0987 32.0164C59.0987 29.3777 60.3663 28.8602 63.4184 28.8602C63.9618 28.8602 65.1001 28.9381 65.8502 29.0934L66.0572 26.4547C65.2809 26.2738 64.0394 26.1444 63.0823 26.1444C58.3744 26.1444 55.9427 27.5929 55.9427 32.1455V38.4315C55.9427 41.4063 56.8222 43.372 61.2714 43.372C65.3327 43.372 66.5744 41.3545 66.5744 38.6644V37.4226C66.5744 34.4478 65.3068 33.1544 62.177 33.1544C61.0646 33.1544 60.004 33.3096 59.0987 33.6201V32.0164V32.0164ZM61.6854 35.8707C62.8236 35.8707 63.4184 36.2588 63.4184 37.5003V38.7679C63.4184 40.0869 62.9009 40.6562 61.2716 40.6562C59.6418 40.6562 59.0987 40.1904 59.0987 38.7679V36.4138C59.8229 36.1033 60.7541 35.8707 61.6854 35.8707Z" fill="white"/>
</symbol><symbol id="icon-figma" viewBox="0 0 46 70">
  <path d="M11.6137 69.3639C17.8915 69.3639 22.9835 64.1885 22.9835 57.8079V46.252H11.6137C5.33589 46.252 0.243896 51.4273 0.243896 57.8079C0.243896 64.1885 5.33589 69.3639 11.6137 69.3639Z" fill="#0ACF83"/>
  <path d="M0.243896 34.6829C0.243896 28.3023 5.33589 23.127 11.6137 23.127H22.9835V46.2531H11.6137C5.33589 46.2389 0.243896 41.0635 0.243896 34.6829Z" fill="#A259FF"/>
  <path d="M0.243896 11.556C0.243896 5.17537 5.33589 0 11.6137 0H22.9835V23.1261H11.6137C5.33589 23.1261 0.243896 17.9366 0.243896 11.556Z" fill="#F24E1E"/>
  <path d="M22.9973 0H34.3671C40.6449 0 45.7369 5.17537 45.7369 11.556C45.7369 17.9366 40.6449 23.1119 34.3671 23.1119H22.9973V0Z" fill="#FF7262"/>
  <path d="M45.7369 34.6829C45.7369 41.0635 40.6449 46.2389 34.3671 46.2389C28.0893 46.2389 22.9973 41.0635 22.9973 34.6829C22.9973 28.3023 28.0893 23.127 34.3671 23.127C40.6449 23.127 45.7369 28.3023 45.7369 34.6829Z" fill="#1ABCFE"/>
</symbol><symbol id="icon-git" viewBox="0 0 69 70">
  <path d="M67.6988 31.4292L37.5727 1.30418C35.8388 -0.430822 33.0249 -0.430822 31.2889 1.30418L25.033 7.56012L32.9689 15.4961C34.813 14.8729 36.9277 15.291 38.3978 16.761C39.8748 18.2405 40.2899 20.3733 39.6516 22.2234L47.2996 29.8718C49.1499 29.2343 51.2849 29.6467 52.7627 31.127C54.8282 33.1917 54.8282 36.538 52.7627 38.604C50.6968 40.6702 47.3505 40.6702 45.2835 38.604C43.7299 37.0487 43.3461 34.7671 44.1326 32.8531L37.0002 25.7207L36.9994 44.4904C37.5165 44.746 37.9887 45.0837 38.3978 45.4903C40.4632 47.555 40.4632 50.9016 38.3978 52.9692C36.3318 55.0344 32.9839 55.0344 30.921 52.9692C28.8555 50.9016 28.8555 47.5553 30.921 45.4906C31.4159 44.9954 32.0041 44.6032 32.6516 44.3367V25.3921C32.0032 25.1274 31.4146 24.735 30.921 24.2382C29.3561 22.6754 28.9798 20.3793 29.7816 18.4577L21.9588 10.6339L1.30184 31.2898C-0.433946 33.0264 -0.433946 35.8407 1.30184 37.5759L31.4285 67.7015C33.1629 69.4368 35.9763 69.4368 37.7129 67.7015L67.6986 37.7158C69.4338 35.98 69.4338 33.1642 67.6986 31.4292" fill="#DE4C36"/>
</symbol><symbol id="icon-github">
  <path d="m20.2031,39.937118c-10.80472,0.039 -20.194093,-9.389605 -19.928468,-20.397405c0.25,-10.46091 9.545305,-19.358725 20.326555,-19.233725c10.6797,0.125 19.679231,9.452026 19.405831,20.420756c-0.2579,10.4297 -9.171118,19.272874 -19.803918,19.210374zm-2.2344,-9.647718c-0.9531,-0.3047 -1.9219,-0.5312 -2.8125,-0.9297c-1.8125,-0.8125 -2.9609,-2.2187 -3.3281,-4.1953c-0.2344,-1.2812 -0.1407,-2.5703 0.0156,-3.8515c0.1406,-1.1329 0.4687,-2.1875 1.3281,-3.0079c0.0625,-0.0625 0.0703,-0.2421 0.0313,-0.3359c-0.4141,-1.1328 -0.3672,-2.2656 -0.0313,-3.4141c0.1016,-0.3437 0.2656,-0.3828 0.5625,-0.289c0.7813,0.2422 1.4141,0.7109 1.9531,1.3047c0.2891,0.3125 0.5469,0.6562 0.8204,0.9843c1.625,-1.0546 6.2734,-1.0546 7.9765,-0.0156c0.3281,-0.3828 0.6406,-0.7812 0.9922,-1.1484c0.5234,-0.5391 1.1328,-0.9531 1.875,-1.1563c0.2422,-0.0703 0.375,-0.0156 0.4609,0.2422c0.3829,1.1328 0.4532,2.2656 0,3.3985c-0.0859,0.2265 -0.0781,0.375 0.1016,0.5468c0.5391,0.5157 0.8672,1.1641 1.0391,1.8907c0.3281,1.3515 0.3984,2.7343 0.3047,4.1093c-0.1016,1.4766 -0.6563,2.7735 -1.7422,3.8125c-0.9141,0.8672 -2.0078,1.3828 -3.211,1.6875c-0.4375,0.1094 -0.875,0.1875 -1.3437,0.2813c0.6015,0.9219 0.75,1.9219 0.7265,2.9687c-0.0234,1.1172 -0.0078,2.2422 -0.0078,3.3594c0,0.1328 0.0078,0.2734 0.0157,0.4141c7.1328,-1.2969 14.3359,-8.3985 13.5468,-18.2344c-0.7422,-9.38281 -9.0468,-16.58594 -18.6562,-15.66406c-8.97658,0.85937 -16.17971,8.86716 -15.36721,18.57036c0.77344,9.1796 8.21091,14.6796 14.03121,15.3984c0,-0.6641 0,-1.3281 0,-2c-0.3203,0.0469 -0.6093,0.0859 -0.8906,0.1172c-2.0937,0.2344 -3.7578,-0.7032 -4.6875,-2.5703c-0.5078,-1.0235 -1.0469,-2.0469 -2.04686,-2.7032c-0.10937,-0.0703 -0.17187,-0.2031 -0.26562,-0.3203c0.08594,-0.0625 0.125,-0.0937 0.17187,-0.1172c0.0625,-0.0234 0.125,-0.0312 0.1875,-0.039c0.70311,-0.0469 1.36721,0.0781 1.89061,0.5703c0.3438,0.3203 0.6563,0.7031 0.9141,1.1015c0.9844,1.5391 2.6797,2.1875 4.4062,1.6719c0.2344,-0.0703 0.3672,-0.1718 0.3907,-0.4453c0.0468,-0.7344 0.25,-1.4297 0.6484,-1.9922z"/>
</symbol><symbol id="icon-gulp" viewBox="0 0 30 69">
  <path d="M23.1137 66.8966L23.7495 55.8725L25.5052 52.7541C25.5052 52.7541 21.5093 54.4549 14.8196 54.4549C8.12967 54.4549 4.19436 52.7855 4.19436 52.7855L6.16196 56.1872L6.85801 66.8966C6.85801 68.0447 10.4969 68.9754 14.9859 68.9754C19.4747 68.9754 23.1137 68.0447 23.1137 66.8966V66.8966ZM21.108 15.4154L22.4426 9.92651L29.8332 1.83474L27.8853 0.108398L20.0609 8.72816L18.5113 15.286C17.345 15.2453 16.1782 15.2251 15.0113 15.2254C6.77072 15.2254 0.090332 16.2026 0.090332 17.4078C0.090332 18.6131 6.77072 19.5902 15.0113 19.5902C23.2518 19.5902 29.9321 18.6131 29.9321 17.4078C29.9321 16.5203 26.309 15.7564 21.108 15.4154" fill="#D34A47"/>
  <path d="M20.3318 18.4892C20.3318 18.4892 20.0427 18.5566 19.1925 18.5604C18.342 18.5641 17.7382 18.5547 17.4977 18.3267C17.433 18.2655 17.3976 18.144 17.398 18.0617C17.3987 17.9051 17.5055 17.8128 17.6416 17.755L17.7704 17.9652C17.7144 17.9853 17.6824 18.009 17.6823 18.0344C17.6818 18.1534 18.5519 18.2348 19.2173 18.226C19.8829 18.2175 20.6871 18.1604 20.6878 18.0432C20.6878 18.0077 20.627 17.9743 20.5212 17.948L20.6494 17.7393C20.8219 17.795 20.9724 17.9026 20.9721 18.0889C20.9704 18.4056 20.5831 18.4538 20.3318 18.4892" fill="white"/>
  <path d="M29.8184 1.85039C30.0043 1.62705 29.7222 1.05579 29.1886 0.574618C28.6547 0.0936907 28.0712 -0.11526 27.885 0.108076C27.6991 0.331412 27.9812 0.902673 28.5151 1.3836C29.0488 1.86465 29.6325 2.07384 29.8184 1.85039ZM22.758 39.9687C22.5828 38.2152 26.4441 35.6756 25.4531 35.5943C23.3199 35.7212 22.2582 38.1956 21.1849 40.7871C20.7916 41.7369 19.4457 45.7869 18.563 45.2883C17.6806 44.79 19.7071 41.4596 20.2751 39.4817C19.6197 39.9818 17.2162 41.9249 16.5967 40.1052C15.6009 40.9852 13.4729 41.462 13.7129 39.1503C13.1831 40.1267 11.9941 41.49 10.5668 40.9235C8.69248 40.1798 11.6529 33.9672 12.389 34.2806C13.1253 34.5939 12.2405 36.0092 12.0087 36.5587C11.4991 37.7682 10.9103 39.2886 11.3036 39.5998C11.9774 40.1331 13.811 37.5826 13.8518 37.5266C14.1947 37.0551 15.1717 33.971 15.9591 34.3251C16.7466 34.6793 13.9951 38.7514 15.0238 39.5595C15.2313 39.7226 16.0803 39.4589 16.5967 38.8775C16.9309 38.5015 16.8159 37.6685 17.9298 34.9046C19.0436 32.1408 20.0363 28.6988 20.8002 28.961C21.5641 29.2232 20.9345 30.9897 20.6604 31.6483C19.3745 34.7391 17.1508 39.8455 18.1995 39.4589C19.2482 39.0725 19.7943 39.0498 20.8212 37.7994C21.8481 36.549 21.8008 34.4893 22.4852 34.5331C23.1699 34.577 23.055 35.2374 22.889 35.7402C23.5626 34.9381 26.0823 33.2487 26.6906 34.9219C27.4111 36.9028 23.0857 39.7641 24.1641 39.6181C25.2157 39.4759 26.9192 38.3532 27.6465 37.3325L29.6486 18.6042C29.6486 18.6042 27.634 20.339 14.8173 20.339C2.00049 20.339 0.194336 18.6403 0.194336 18.6403L1.89879 35.7348C2.80351 33.0592 4.95188 27.6475 8.3383 27.8291C9.87873 27.9118 11.9351 30.9981 10.1736 31.1027C9.42801 31.1469 9.35233 29.5622 8.4694 29.3295C7.83228 29.1615 6.94526 29.7004 6.37199 30.2844C5.22873 31.4486 2.76988 36.042 3.09477 38.332C3.5087 41.2516 6.9667 37.3175 7.5518 36.1495C7.96385 35.3267 8.24223 32.8891 9.14343 33.1448C10.0447 33.4006 9.06481 35.9163 8.41152 38.1405C7.67763 40.638 7.29182 43.2726 6.37199 42.9695C5.45204 42.6667 6.95053 39.4425 6.89628 38.8775C6.03164 39.7076 4.43872 41.8091 2.40082 40.7689L3.45937 51.3845C3.45937 51.3845 6.27275 53.6974 14.7478 53.6974C23.2229 53.6974 26.1404 51.4206 26.1404 51.4206L27.4548 39.1253C26.3794 40.2149 22.9759 42.1498 22.758 39.9687" fill="#D34A47"/>
</symbol><symbol id="icon-html" viewBox="0 0 69 60">
  <path d="M3.63867 0L9.60416 54.082L34.7353 60L59.5111 54.082L65.4766 0H3.63867Z" fill="#FD982C"/>
  <path d="M34.7354 0V60L59.5112 54.082L65.4767 0H34.7354Z" fill="#FA502E"/>
  <path d="M53.1212 18.6782L26.7261 18.6777L27.1678 22.8763H52.9959L50.9086 46.3362L34.7136 50.4323L17.3309 45.7311V36.2174H28.129V39.0509L34.7157 40.8206L40.9565 39.0496L41.4108 32.0252H17.4984L14.7988 9.64648H53.1212V18.6782Z" fill="white"/>
  <path d="M34.7354 9.64648H53.1209V18.6782H34.7354V9.64648Z" fill="#DEECF1"/>
  <path d="M41.4105 32.0258L40.9562 39.0502L34.7354 40.8158V50.4275L50.9083 46.3369L52.9956 22.877H34.7354V32.0258H41.4105Z" fill="#DEECF1"/>
</symbol><symbol id="icon-inst">
  <path stroke="null" d="m39.8959,20.0786c0,2.7187 -0.0547,5.8143 0.0157,8.533c0.1171,4.8125 -3.2753,8.4575 -7.1269,10.1137c-1.5468,0.6641 -3.1718,1.1633 -4.8515,1.1633c-5.2578,0.0078 -10.5973,0.0781 -15.8551,-0.0235c-3.96091,-0.0781 -7.66153,-1.6606 -9.99746,-4.9262c-1.22657,-1.7187 -1.8125,-4.1147 -1.8125,-6.2318c0,-5.6016 -0.0738,-11.2692 -0.0738,-16.8707c0,-4.57034 2.37416,-8.28225 6.32728,-10.36037c1.71875,-0.89844 3.95498,-1.35506 5.90028,-1.36288c5.1015,0 10.2109,-0.03125 15.3125,0.01563c3.9609,0.03125 7.6346,1.69448 10.0721,4.88198c1.3594,1.78125 2.0156,4.19713 2.0156,6.44714c0,2.8437 0.0738,5.7691 0.0738,8.6207zm-36.30215,0c0,2.8672 0,5.7265 0,8.5937c0,1.2813 0.29687,2.4844 0.96094,3.5703c1.74218,2.8516 4.375,4.2422 7.64061,4.2969c5.2422,0.0781 10.4922,0.0313 15.7422,0.0156c1.2891,0 2.5391,-0.2656 3.7031,-0.8203c3.1719,-1.5156 4.9453,-3.9297 4.9297,-7.5547c-0.0312,-5.5468 -0.0078,-11.0937 -0.0078,-16.6406c0,-1.57031 -0.4453,-3.00781 -1.375,-4.27344c-1.7969,-2.42968 -4.2813,-3.625 -7.25,-3.65625c-5.2344,-0.0625 -10.4687,-0.02343 -15.7031,-0.01562c-1.1172,0 -2.1953,0.22656 -3.24221,0.61719c-2.875,1.07031 -5.54688,3.78125 -5.42188,7.77342c0.09375,2.7031 0.02344,5.3985 0.02344,8.0938z"/>
  <path d="m20.125,28.3594c-5.039,0 -9.1016,-4.0156 -9.1094,-9.0156c-0.0078,-4.9219 4.086,-8.9532 9.0938,-8.9532c5.0234,-0.0078 9.1016,4.0157 9.1094,8.9766c0,4.9531 -4.0703,8.9844 -9.0938,8.9922zm0,-2.8906c3.4297,0 6.211,-2.7422 6.2031,-6.1172c-0.0078,-3.3438 -2.789,-6.0782 -6.2031,-6.0782c-3.4297,0 -6.2265,2.7266 -6.2265,6.0938c0.0078,3.375 2.7968,6.1094 6.2265,6.1016z"/>
  <path d="m30.2735,7.65625c1.0547,0 1.9141,0.89844 1.9141,2c-0.0079,1.10155 -0.875,1.99215 -1.9297,1.98435c-1.0391,-0.0078 -1.8907,-0.8984 -1.8907,-1.97654c-0.0078,-1.10156 0.8516,-2.00781 1.9063,-2.00781z"/>
</symbol><symbol id="icon-js" viewBox="0 0 69 69">
  <path d="M0 0H69V69H0V0Z" fill="#F0DB4F"/>
  <path d="M63.3527 52.5437C62.8477 49.3954 60.7948 46.7522 54.7146 44.286C52.6027 43.3153 50.248 42.6201 49.5462 41.0197C49.297 40.0883 49.2642 39.5636 49.4216 38.9995C49.8741 37.1696 52.0583 36.599 53.7898 37.1237C54.9048 37.4975 55.9608 38.3568 56.597 39.7276C59.5748 37.7993 59.5682 37.8124 61.6474 36.4875C60.8866 35.3069 60.4799 34.7625 59.9814 34.2575C58.1909 32.257 55.7509 31.2272 51.8484 31.306C51.1728 31.3912 50.4907 31.483 49.8151 31.5683C47.8672 32.0602 46.0109 33.0834 44.9222 34.4542C41.6558 38.16 42.5872 44.6468 46.5619 47.3163C50.4776 50.2547 56.2297 50.9237 56.9643 53.6719C57.6793 57.0367 54.4917 58.1254 51.3237 57.7385C48.9887 57.2531 47.6901 56.0659 46.2864 53.9081C43.7023 55.4035 43.7023 55.4035 41.0459 56.9317C41.6756 58.3091 42.3379 58.9322 43.394 60.1259C48.3919 65.196 60.8997 64.9467 63.1429 57.2728C63.2347 57.0104 63.8382 55.2526 63.3527 52.5437V52.5437ZM37.5106 31.7125H31.0566C31.0566 37.2876 31.0304 42.8234 31.0304 48.3985C31.0304 51.9469 31.2141 55.2001 30.6369 56.1971C29.6924 58.1581 27.2459 57.9155 26.1309 57.535C24.9962 56.9775 24.419 56.1839 23.75 55.0624C23.5664 54.741 23.4286 54.4917 23.3826 54.4721C21.6315 55.5412 19.8867 56.6168 18.1355 57.6859C19.0079 59.4765 20.2934 61.031 21.9397 62.041C24.3993 63.5168 27.705 63.9693 31.1616 63.1757C33.4113 62.5198 35.3527 61.1622 36.3693 59.0961C37.8385 56.3873 37.5237 53.1078 37.5106 49.4807C37.5434 43.5645 37.5106 37.6484 37.5106 31.7125Z" fill="#323330"/>
</symbol><symbol id="icon-less" viewBox="0 0 69 36">
  <path d="M66.4267 14.6343C66.0982 13.8691 65.9394 12.9635 65.9054 12.1111C65.8211 10.0131 65.8928 7.90754 65.8046 5.80961C65.7258 3.93084 65.1026 2.23765 63.4258 1.2691C61.9494 0.416617 60.2381 0.331781 58.5952 0.31175V3.66455C59.1429 3.68458 59.0081 3.70284 59.1418 3.7105C61.3481 3.82715 62.0874 4.58007 62.1153 6.93487C62.1361 8.6858 62.1219 10.4379 62.1482 12.1882C62.1805 14.3121 62.4751 16.3393 64.2806 17.6802C64.3113 17.7032 64.3085 17.7874 64.3261 17.8852C63.4072 18.5875 62.6799 19.4918 62.4685 20.7261C62.2982 21.7247 62.2019 22.7468 62.1728 23.7619C62.1203 25.5988 62.1745 27.4399 62.1257 29.2768C62.0874 30.7155 61.4538 31.3907 60.1521 31.7112C59.662 31.8325 59.1429 31.8755 58.5952 31.9504V35.2949C59.6905 35.2242 60.2474 35.1777 60.9976 35.0905C63.8212 34.7618 65.4109 33.1811 65.7367 30.2342C65.8386 29.3104 65.8271 28.369 65.8463 27.4358C65.8824 25.6866 65.8638 23.9292 66.0095 22.1907C66.1579 20.4168 67.3571 19.4364 69 19.5342V16.0283C67.9048 16.2392 66.8955 15.7296 66.4267 14.6343V14.6343ZM14.9577 21.7824C14.9571 14.9784 14.7857 8.17442 14.7857 1.37103V0.300556C13.1429 0.300556 11.3762 0.283471 9.64302 0.308804C8.93933 0.318819 8.31888 0.383624 7.62121 0.486135C4.95048 0.877324 3.66302 2.22587 3.18988 5.0885C3.05298 5.91448 3.08036 6.77285 3.06886 7.61768C3.0475 9.22368 3.09021 10.8303 3.06612 12.4357C3.036 14.4576 2.1505 16.0247 0.233833 16.1437C0.165929 16.1478 0.547619 16.2321 0 16.2828V19.4082C2.19048 19.7781 2.8876 20.7296 3.03326 22.9188C3.05626 23.2676 3.06229 23.6193 3.06557 23.9699C3.08419 25.9258 3.06338 27.8847 3.14552 29.8371C3.22274 31.6593 3.59895 33.2877 5.19964 34.2439C6.69464 35.137 8.7619 35.2095 9.85714 35.256V31.9191C9.85714 31.8909 9.74214 31.8649 9.63536 31.8579C7.25924 31.7018 6.72367 31.0077 6.70943 28.4497C6.70012 26.7559 6.76748 25.0621 6.74229 23.3684C6.71052 21.2404 6.42138 19.222 4.63067 17.8752C4.60329 17.8546 4.63012 17.7674 4.62136 17.6496C5.82557 16.8307 6.46574 15.5782 6.63988 14.0593C6.73626 13.2216 6.76857 12.372 6.78226 11.5266C6.80964 9.77512 6.78062 8.02183 6.82498 6.2715C6.85619 5.04137 7.58617 4.1447 8.51767 3.94321C9.40043 3.75174 9.85714 3.75763 11.5 3.66867V4.87995C11.5 10.954 11.299 17.0274 11.3286 23.1015C11.339 25.1817 11.5531 27.2325 13.6259 28.131C14.7529 28.6194 15.9604 28.7696 17.2549 29.0983C17.4712 27.7362 17.5419 26.6063 17.7188 25.4881C15.3328 24.7517 14.9577 24.3699 14.9577 21.7824V21.7824ZM29.5649 10.0626C25.5453 7.99473 20.6671 9.80281 18.7954 14.1401C17.3858 17.4063 17.4362 20.7679 18.6771 24.08C19.3501 25.8757 20.5664 27.2202 22.2218 28.0108C25.455 29.5549 28.727 29.1796 31.987 28.0956C32.1628 28.0367 32.3873 27.6726 32.3659 27.4794C32.2548 26.5008 32.0702 25.5317 31.9054 24.5213C31.1294 24.7316 30.481 24.9467 29.8184 25.0804C28.0677 25.4345 26.3131 25.4339 24.6095 24.7051C22.9272 23.9864 21.7974 21.9185 22.0784 20.1511H33.5083C33.6479 18.3836 33.5926 15.9534 32.8933 13.9439C32.269 12.1476 31.1913 10.8998 29.5649 10.0626V10.0626ZM29.5408 17.2059H22.0296C22.0335 14.8494 23.817 12.7344 26.157 12.7827C28.2122 12.8251 29.6339 14.8494 29.5408 17.2059ZM60.2666 24.44C60.536 21.4625 59.7003 19.787 57.236 18.4932C56.362 18.0343 55.4344 17.6943 54.544 17.269C53.8775 16.9508 53.2067 16.6286 52.5835 16.2256C51.9767 15.8338 51.7226 15.1834 51.8124 14.4217C51.9006 13.6693 52.3502 13.1733 52.9997 13.0319C53.7866 12.8599 54.6113 12.7126 55.4026 12.7821C56.5209 12.8805 57.6238 13.1886 58.7776 13.4154L59.507 9.9878C57.9458 9.73211 56.4902 9.4016 55.0193 9.2767C53.3835 9.13826 51.7905 9.43047 50.2933 10.2606C47.1297 12.0144 47.0717 17.3986 49.979 19.166C50.8475 19.6939 51.7768 20.1063 52.6804 20.5682C53.6316 21.0554 54.6173 21.479 55.5275 22.0434C56.2186 22.4717 56.4655 23.2193 56.2805 24.0906C56.109 24.9007 55.539 25.2619 54.8692 25.3308C53.8507 25.4351 52.8058 25.5352 51.7976 25.4062C50.5836 25.2507 49.3952 24.8542 48.1516 24.5514L47.5175 27.9625C50.4379 29.1419 53.3277 29.3352 56.2454 28.6394C58.6872 28.0573 60.0782 26.5208 60.2666 24.44V24.44ZM44.706 18.8714C43.6332 18.2593 42.4794 17.8128 41.3721 17.2672C40.6848 16.9285 39.957 16.6345 39.3514 16.1649C38.1866 15.2618 38.4034 13.5303 39.7599 13.0672C40.538 12.8009 41.4181 12.7185 42.2357 12.7844C43.3495 12.8746 44.4486 13.1845 45.6101 13.4107L46.299 10.1433C45.7092 9.97071 45.1753 9.78277 44.6282 9.65905C42.4536 9.16653 40.2675 8.97565 38.1258 9.78572C36.2858 10.4821 35.0093 11.7841 34.7568 13.9745C34.4743 16.4206 35.2283 18.3518 37.3285 19.5136C38.169 19.979 39.0699 20.3166 39.928 20.7479C40.7845 21.1779 41.659 21.5886 42.4547 22.1282C43.0631 22.5406 43.303 23.2387 43.1316 24.0459C42.9613 24.8459 42.4191 25.2489 41.7445 25.3237C40.7259 25.4362 39.6805 25.5405 38.6718 25.4139C37.4528 25.2607 36.2606 24.863 34.995 24.5567C34.8083 25.5069 34.5893 26.4643 34.4529 27.4346C34.4233 27.6455 34.6418 28.0508 34.8258 28.1198C37.7742 29.2191 40.7752 29.377 43.7739 28.4267C45.5646 27.86 46.817 26.6292 47.0695 24.5248C47.3559 22.1359 46.8264 20.0804 44.706 18.8714V18.8714Z" fill="#2A4D80"/>
</symbol><symbol id="icon-photoshop" viewBox="0 0 70 70">
  <path d="M3.18834 3.01758H66.4367V66.1184H3.18834V3.01758Z" fill="#0C0824"/>
  <path d="M3.18832 3.01597H66.4367V66.1168H3.18832V3.01597ZM0.3125 69.0664H69.3125V0.0664062H0.3125V69.0664ZM46.8308 28.3741C44.5588 28.3741 43.7825 29.5544 43.7825 30.5275C43.7825 31.589 44.3 32.3271 47.3483 33.9472C51.8629 36.189 53.2626 38.3399 53.2626 41.4967C53.2626 46.2155 49.7559 48.7506 45.0122 48.7506C42.9763 48.8279 40.9528 48.3941 39.1176 47.4868C38.9155 47.3984 38.8884 47.2518 38.8884 47.0142V42.6745C38.8884 42.3788 39.0314 42.2904 39.2334 42.4395C40.9569 43.5762 42.9631 44.1799 45.0122 44.1784C47.2842 44.1784 48.233 43.2053 48.233 41.8784C48.233 40.8168 47.5726 39.8741 44.6672 38.3399C40.5839 36.3356 38.8884 34.296 38.8884 30.9092C38.8884 27.1053 41.7914 23.951 46.8234 23.951C48.575 23.8739 50.3241 24.1548 51.9689 24.7775C52.0636 24.8406 52.1402 24.9284 52.1909 25.0319C52.2416 25.1354 52.2644 25.2508 52.2572 25.3664V29.4104C52.2572 29.6454 52.1142 29.7945 51.8259 29.7061C50.3058 28.8086 48.5772 28.35 46.8234 28.3792L46.8308 28.3741ZM22.1042 31.8822C22.7646 31.9404 23.2821 31.9404 24.4329 31.9404C27.7967 31.9404 30.9584 30.7322 30.9584 26.0438C30.9584 22.2981 28.6863 20.4126 24.8642 20.4126C23.7134 20.4126 22.6217 20.4707 22.1042 20.501V31.8822ZM16.9859 16.2119C16.9859 16.0046 17.3875 15.8581 17.6192 15.8581C19.46 15.7696 22.1904 15.7115 25.0367 15.7115C33.0012 15.7115 36.1062 20.1927 36.1062 25.9149C36.1062 33.4038 30.8154 36.6187 24.3196 36.6187C23.2279 36.6187 22.8533 36.5606 22.0771 36.5606V47.8837C22.0771 48.1187 21.9908 48.2375 21.7321 48.2375H17.3333C17.1041 48.2375 16.9883 48.149 16.9883 47.8837V16.2245L16.9859 16.2119Z" fill="#31C5F0"/>
</symbol><symbol id="icon-sass" viewBox="0 0 69 40">
  <path d="M59.3985 22.9691C56.986 22.9797 54.8969 23.4278 53.1448 24.095C52.4979 23.1047 51.851 22.2395 51.7433 21.5933C51.622 20.8428 51.4737 20.3841 51.622 19.4878C51.7701 18.5913 52.444 17.3196 52.444 17.2154C52.4304 17.1215 52.2956 16.6629 50.9075 16.6525C49.5195 16.6421 48.3198 16.861 48.185 17.1424C48.0503 17.4238 47.7807 18.0701 47.6055 18.7372C47.3629 19.717 44.8291 23.188 43.387 25.0121C42.9152 24.3033 42.5109 23.6779 42.4299 23.1775C42.3087 22.4271 42.1603 21.9684 42.3087 21.072C42.457 20.1755 43.1309 18.904 43.1309 18.7997C43.1174 18.7059 42.9826 18.2473 41.5946 18.2369C40.2062 18.2264 39.0068 18.4453 38.872 18.7268C38.7373 19.0082 38.589 19.6753 38.2925 20.3216C38.0093 20.9678 34.6399 26.7633 33.7638 28.2747C33.3191 29.046 32.9284 29.661 32.6452 30.0779C32.3622 30.4949 32.6317 30.1092 32.6048 30.1509C32.3622 30.5053 32.2274 30.7033 32.2274 30.7033V30.7139C32.0387 30.9745 31.8365 31.2245 31.7421 31.2245C31.6747 31.2245 31.5399 30.5262 31.769 29.5673C32.2677 27.5555 33.4807 24.4181 33.4673 24.3034C33.4673 24.2513 33.6963 23.6988 32.6855 23.4174C31.7016 23.136 31.3513 23.6051 31.2703 23.6051C31.1895 23.6051 31.1221 23.7718 31.1221 23.7718C31.1221 23.7718 32.2138 20.2384 29.033 20.2384C27.0383 20.2384 24.2889 21.9166 22.9276 23.4488C22.065 23.8136 20.2321 24.5849 18.2913 25.4084C17.55 25.7211 16.7818 26.0547 16.054 26.357L15.9058 26.2317C12.0512 23.0525 4.92149 20.801 5.218 16.5274C5.32582 14.9743 6.02666 10.8779 18.9115 5.91631C29.4646 1.85115 37.9151 2.96646 39.3841 5.44725C41.4731 8.99123 34.869 15.5789 23.8983 16.5274C19.7202 16.8922 17.5232 15.6414 16.9707 15.1724C16.3912 14.6825 16.3103 14.6616 16.0947 14.7554C15.7442 14.9013 15.9599 15.3391 16.0947 15.5997C16.4181 16.2564 17.7659 17.4238 20.0571 18.0075C22.0652 18.5183 26.9712 18.7997 32.9014 17.0277C39.5459 15.0369 44.7349 9.51241 43.2119 4.8948C41.6619 0.193814 31.5806 -1.34886 22.0518 1.26743C16.3776 2.83095 10.2317 5.27005 5.81102 8.47006C0.554699 12.2642 -0.280921 15.5789 0.0694999 16.9548C1.29611 21.8642 10.043 25.0642 13.5472 27.4304C13.372 27.5032 13.2103 27.5762 13.062 27.6388C11.3099 28.3058 4.63845 31.0056 2.96721 33.8616C1.08033 37.0928 3.26372 39.4174 4.71932 39.7301C9.22089 40.6995 13.8303 38.9588 16.3237 36.0923C18.8034 33.2258 18.507 29.5047 17.3614 27.8056L17.3209 27.7431L18.6956 27.1177C19.5853 26.7112 20.4613 26.3359 21.2294 26.0127C20.7983 26.9195 20.4881 27.9931 20.3265 29.5567C20.1379 31.3913 21.1083 33.7678 22.3886 34.7059C22.9547 35.1123 23.6286 35.1228 24.0464 35.1228C25.529 35.1228 26.2028 34.1742 26.9441 33.0381C27.8606 31.6518 28.6693 30.0466 28.6693 30.0466C28.6693 30.0466 27.6584 34.3932 30.4214 34.3932C31.4322 34.3932 32.443 33.3821 32.9013 32.8609V32.8713C32.9013 32.8713 32.9282 32.8401 32.9821 32.7671C33.0387 32.7024 33.0926 32.6364 33.1439 32.5692V32.5483C33.5482 32.0063 34.4512 30.7659 35.799 28.7125C37.5375 26.0649 39.2089 22.7502 39.2089 22.7502C39.2089 22.7502 39.3706 23.5633 39.8693 24.8975C40.1656 25.6898 40.8126 26.5548 41.3112 27.3991C40.9069 27.8369 40.6643 28.0872 40.6643 28.0872L40.6778 28.0976C40.3545 28.4311 39.9904 28.7856 39.6132 29.1399C38.2385 30.4116 36.5942 31.8606 36.3785 32.2775C36.1225 32.7673 36.1764 33.1321 36.675 33.4241C37.0389 33.6326 37.6859 33.6741 38.3732 33.6326C39.6132 33.5699 40.4758 33.3303 40.907 33.1842C41.5809 32.9966 42.3492 32.7152 43.0904 32.2982C44.4382 31.527 45.2604 30.4325 45.1795 28.9733C45.1391 28.1707 44.8021 27.3785 44.3843 26.628C44.5056 26.4925 44.627 26.3569 44.7482 26.211C46.8777 23.8031 48.522 21.1556 48.522 21.1556C48.522 21.1556 48.6837 21.9687 49.1824 23.3029C49.4383 23.9804 49.9506 24.7206 50.4089 25.4502C48.4142 26.7115 47.1607 28.1708 46.7294 29.1297C45.9342 30.9017 46.5542 31.7043 47.7268 31.8919C48.2523 31.9753 49.0072 31.7877 49.5731 31.6001C50.2739 31.4229 51.123 31.1205 51.9049 30.6724C53.2527 29.9011 54.5465 28.8274 54.4791 27.3786C54.4387 26.7115 54.2096 26.0548 53.8996 25.4294C55.5978 24.8874 57.7945 24.5747 60.5845 24.8352C66.5821 25.3773 67.7682 28.275 67.5392 29.4841C67.3101 30.6933 66.0566 31.3603 65.6387 31.5688C65.2209 31.7669 65.0861 31.8399 65.1265 31.9858C65.1805 32.2047 65.3691 32.1942 65.733 32.1526C66.2317 32.09 68.8868 31.1624 68.9947 28.9319C69.1564 26.065 65.6387 22.938 59.3985 22.9691V22.9691ZM13.1429 35.0291C11.1617 36.7073 8.37179 37.3431 7.18575 36.8011C5.90536 36.2278 6.4039 33.7574 8.84351 31.975C10.3261 30.891 12.2534 29.8903 13.5203 29.2753C13.8033 29.1398 14.2346 28.9419 14.7468 28.702C14.8276 28.6605 14.8815 28.6395 14.8815 28.6395C14.9759 28.5978 15.0837 28.5457 15.1915 28.4936C16.0945 31.0369 15.232 33.2675 13.1429 35.0291V35.0291ZM27.6315 27.4095C26.9441 28.7125 25.4885 32.0584 24.6125 31.8708C23.8576 31.7144 23.3995 29.1815 24.4641 26.6799C25.0032 25.4185 26.1488 23.9177 26.8227 23.3338C27.9145 22.3957 29.1004 22.083 29.3971 22.4687C29.7475 22.9691 28.0628 26.5965 27.6315 27.4095ZM39.5862 31.8291C39.2897 31.9439 39.0202 32.0271 38.8989 31.9647C38.8045 31.923 39.02 31.7667 39.02 31.7667C39.02 31.7667 40.5161 30.5263 41.1091 29.953C41.446 29.6195 41.8504 29.2338 42.2816 28.796V28.921C42.2818 30.4219 40.4219 31.4226 39.5862 31.8291ZM48.8049 30.203C48.5892 30.0779 48.6163 29.6923 49.344 28.4831C49.6271 28.0037 50.2739 27.2011 51.3926 26.4401C51.5274 26.7528 51.6084 27.055 51.5948 27.3366C51.5814 29.2128 49.8563 29.9112 48.8049 30.203Z" fill="#CF649A"/>
</symbol><symbol id="icon-skype">
  <path d="m1.039744,18.5366c0.03906,-0.4297 0.11719,-1.2578 0.17969,-2.0859c0.01562,-0.1954 -0.00782,-0.4141 -0.09375,-0.586c-3.13282,-6.24998 0.19531,-13.7031 6.95312,-15.492167c2.67192,-0.710937 5.25782,-0.390625 7.74222,0.843747c0.1953,0.09375 0.4453,0.14844 0.6562,0.125c5,-0.554684 10.25634,-0.49634 14.17824,2.67554c3.6563,2.96093 5.05616,7.95728 5.69676,12.63698c0.211,1.5469 0.1953,3.0859 0.0078,4.6328c-0.0312,0.2344 0.0235,0.5234 0.1407,0.7266c3.7734,6.6171 -0.2266,15 -7.75,16.1796c-2.6407,0.4141 -5.125,-0.0937 -7.4219,-1.4765c-0.1719,-0.1016 -0.4141,-0.1641 -0.6094,-0.1485c-7.5547,0.7266 -14.42968,-3.0468 -17.84374,-9.7968c-1.17188,-2.3203 -1.79688,-5.0078 -1.83594,-8.2344zm2.735133,0.4062c0.05469,3.9219 1.44856,6.547649 4.11262,9.508649c1.906265,2.11715 3.655376,3.368141 5.635934,4.206313c1.980557,0.838171 4.192561,1.067955 7.024611,0.751555c0.3516,-0.0391 1.050196,0.328195 1.354896,0.531295c1.21875,0.8047 2.168218,1.268022 3.337177,1.427633c1.168959,0.15961 2.381868,0.015508 3.776418,-0.394642c5.8984,-1.742199 8.077171,-6.579551 4.842771,-11.829551c-0.1719,-0.2735 -0.214864,-1.029742 -0.152364,-1.396942c0.375,-2.1015 0.022124,-4.11789 -0.446676,-6.20379c-1.8203,-8.02345 -7.23713,-12.40897 -15.79183,-11.21366c-0.4531,0.0625 -2.161764,-0.121951 -2.560164,-0.332891c-4.1719,-2.273434 -7.850618,-1.459604 -10.545928,2.454466c-2.17969,3.17187 -2.220273,5.357062 -0.462465,8.763362c0.125,0.25 0.073369,1.208208 0.034299,1.497308c-0.11718,0.9062 -0.073359,1.324695 -0.159299,2.230895z"/>
  <path d="m18.6241,28.9189c-1.6016,-0.0156 -3.1641,-0.2109 -4.6485,-0.8594c-0.9062,-0.3984 -1.7187,-0.9297 -2.3906,-1.6562c-0.6172,-0.6641 -0.9922,-1.4297 -0.9922,-2.3516c-0.0078,-1.4687 1.4609,-2.3515 2.7422,-1.625c0.3047,0.1719 0.5703,0.4532 0.8203,0.711c0.2656,0.2734 0.5,0.5625 0.7266,0.8672c1.0625,1.4062 2.5468,1.7499 4.1953,1.6562c0.7812,-0.0391 1.5078,-0.2578 2.1484,-0.7344c0.7344,-0.5547 1.1094,-1.2734 0.9453,-2.2031c-0.1562,-0.8828 -0.7968,-1.3203 -1.5859,-1.5391c-1.5313,-0.4218 -3.0703,-0.7968 -4.6094,-1.1796c-1.2031,-0.3047 -2.3828,-0.6407 -3.4062,-1.3907c-1.2266,-0.8906 -1.875,-2.1093 -1.9532,-3.6093c-0.1406,-2.7657 1.0704,-4.711 3.7032,-5.67974c3.1797,-1.17187 6.3125,-0.99218 9.289,0.71874c0.5547,0.3203 1.0625,0.7578 1.5,1.2266c0.3125,0.3359 0.5313,0.8125 0.6563,1.2578c0.2578,0.9062 -0.0078,1.5859 -0.6875,2.0156c-0.7656,0.4844 -1.7344,0.4688 -2.4063,-0.1015c-0.4453,-0.375 -0.8359,-0.8204 -1.2422,-1.2422c-0.4531,-0.4688 -1,-0.7891 -1.625,-0.961c-1.0781,-0.2968 -2.1562,-0.3437 -3.2343,-0.039c-0.6641,0.1875 -1.2032,0.5547 -1.5157,1.1953c-0.414,0.8359 -0.25,1.6406 0.5547,2.1015c0.6172,0.3594 1.3125,0.6329 2.0078,0.8125c1.4532,0.3829 2.9454,0.6563 4.3985,1.0391c0.6953,0.1875 1.3906,0.4531 2.0234,0.8047c2.1016,1.1641 2.8125,3.125 2.5625,5.3515c-0.289,2.5391 -1.9453,4.3204 -4.6484,4.9922c-1.0781,0.2657 -2.2031,0.3516 -3.3047,0.5157c-0.0156,-0.0235 -0.0156,-0.0625 -0.0234,-0.0938z"/>
</symbol><symbol id="icon-vk">
  <path d="M7.44318 0C3.36584 0 0 3.36584 0 7.44318V32.5568C0 36.6342 3.36584 40 7.44318 40H32.5568C36.6342 40 40 36.6342 40 32.5568V7.44318C40 3.36584 36.6342 0 32.5568 0H7.44318ZM7.44318 3.63636H32.5568C34.6686 3.63636 36.3636 5.33144 36.3636 7.44318V32.5568C36.3636 34.6686 34.6686 36.3636 32.5568 36.3636H7.44318C5.33144 36.3636 3.63636 34.6686 3.63636 32.5568V7.44318C3.63636 5.33144 5.33144 3.63636 7.44318 3.63636ZM19.4886 13.125C18.1541 13.1123 17.0036 13.1514 16.3636 13.4659C15.9382 13.675 15.5955 14.1205 15.7955 14.1477C16.0427 14.1805 16.6355 14.3123 16.9318 14.7159C17.3155 15.2377 17.2727 16.4205 17.2727 16.4205C17.2727 16.4205 17.4959 19.655 16.7614 20.0568C16.2577 20.3314 15.5764 19.7245 14.0909 17.1591C13.3291 15.8445 12.7841 14.4318 12.7841 14.4318C12.7841 14.4318 12.6414 14.1227 12.4432 13.9773C12.2032 13.8009 11.875 13.75 11.875 13.75L8.35227 13.8068C8.35227 13.8068 7.80818 13.8014 7.61364 14.0341C7.43909 14.2414 7.55682 14.6591 7.55682 14.6591C7.55682 14.6591 10.37 21.2068 13.5227 24.4886C16.4173 27.4959 19.7159 27.2727 19.7159 27.2727H21.1932C21.1932 27.2727 21.6459 27.2359 21.875 26.9886C22.0859 26.7614 22.0455 26.3068 22.0455 26.3068C22.0455 26.3068 22.0291 24.3268 22.9545 24.0341C23.8673 23.745 25.0632 25.9655 26.3068 26.8182C27.2468 27.4636 27.9545 27.3295 27.9545 27.3295L31.25 27.2727C31.25 27.2727 32.9827 27.1627 32.1591 25.7955C32.0918 25.6845 31.7068 24.8018 29.7159 22.9545C27.6323 21.02 27.8868 21.3 30.3977 17.9545C31.9268 15.9164 32.5773 14.6805 32.3864 14.1477C32.2045 13.6405 31.0795 13.8068 31.0795 13.8068H27.3295C27.3295 13.8068 27.0236 13.7968 26.8182 13.9205C26.6164 14.0405 26.4773 14.3182 26.4773 14.3182C26.4773 14.3182 25.9027 15.8741 25.1136 17.2159C23.4482 20.045 22.7727 20.1745 22.5 20C21.8655 19.5909 22.0455 18.3764 22.0455 17.5C22.0455 14.7582 22.4755 13.5918 21.25 13.2955C20.8427 13.1973 20.5305 13.1359 19.4886 13.125Z"/>
</symbol><symbol id="icon-webpack" viewBox="0 0 69 69">
  <path d="M63.2267 52.882L35.7076 68.4609V56.3266L52.8282 46.8984L63.2267 52.882ZM65.1134 51.1786V18.6246L55.0438 24.4465V45.3675L65.108 51.1732L65.1134 51.1786ZM5.77344 52.882L33.2656 68.4502V56.3266L16.1396 46.8984L5.77344 52.882ZM3.88672 51.1786V18.6246L13.9564 24.4465V45.3675L3.88672 51.1786ZM5.06727 16.5169L33.2926 0.539062V12.2691L15.207 22.2148L15.0615 22.2956L5.06727 16.5169ZM63.9221 16.5169L35.7076 0.539062V12.2691L53.7931 22.2094L53.9387 22.2902L63.9329 16.5169H63.9221Z" fill="#8ED6FB"/>
  <path d="M33.2923 53.5663L16.3711 44.2567V25.8316L33.2923 35.5778V53.5663ZM35.7073 53.5663L52.6284 44.2675V25.8316L35.7073 35.5778V53.5663ZM17.5193 23.7184L34.4998 14.3711L51.4802 23.7184L34.4998 33.5078L17.5193 23.7184Z" fill="#1C78C0"/>
</symbol></svg>