<svg width="70" height="70" viewBox="0 0 70 70" fill="none" xmlns="http://www.w3.org/2000/svg">
<path d="M3.52881 69.6543H66.7788C67.5413 69.6543 68.2726 69.3514 68.8117 68.8122C69.3509 68.2731 69.6538 67.5418 69.6538 66.7793V15.0293H0.653809V66.7793C0.653809 67.5418 0.956709 68.2731 1.49588 68.8122C2.03504 69.3514 2.76631 69.6543 3.52881 69.6543Z" fill="#40495A"/>
<path d="M66.7788 0.654297H3.52881C2.76631 0.654297 2.03504 0.957198 1.49588 1.49636C0.956709 2.03553 0.653809 2.7668 0.653809 3.5293V15.0293H69.6538V3.5293C69.6538 2.7668 69.3509 2.03553 68.8117 1.49636C68.2726 0.957198 67.5413 0.654297 66.7788 0.654297Z" fill="#EAE8E8"/>
<path d="M15.0288 6.40625H6.40381V9.28125H15.0288V6.40625Z" fill="#D7D4D4"/>
<path d="M63.9043 6.40625H20.7793V9.28125H63.9043V6.40625Z" fill="#D7D4D4"/>
<path d="M12.1538 58.1543H6.40381V61.0293H12.1538V58.1543Z" fill="#748191"/>
<path d="M12.1538 46.6543H6.40381V49.5293H12.1538V46.6543Z" fill="#748191"/>
<path d="M12.1538 52.4043H6.40381V55.2793H12.1538V52.4043Z" fill="#748191"/>
<path d="M12.1538 35.1543H6.40381V38.0293H12.1538V35.1543Z" fill="#748191"/>
<path d="M12.1538 40.9043H6.40381V43.7793H12.1538V40.9043Z" fill="#748191"/>
<path d="M12.1538 23.6543H6.40381V26.5293H12.1538V23.6543Z" fill="#748191"/>
<path d="M12.1538 29.4043H6.40381V32.2793H12.1538V29.4043Z" fill="#748191"/>
<path d="M20.7788 40.9043H16.4663V43.7793H20.7788V40.9043Z" fill="#FFCD02"/>
<path d="M38.0283 40.9043H23.6533V43.7793H38.0283V40.9043Z" fill="#2ECC71"/>
<path d="M46.6538 40.9043H40.9038V43.7793H46.6538V40.9043Z" fill="#FF6E40"/>
<path d="M58.1538 40.9043H49.5288V43.7793H58.1538V40.9043Z" fill="#26C6DA"/>
<path d="M25.0913 35.1543H16.4663V38.0293H25.0913V35.1543Z" fill="#2ECC71"/>
<path d="M42.3413 35.1543H27.9663V38.0293H42.3413V35.1543Z" fill="#26C6DA"/>
<path d="M53.8413 35.1543H45.2163V38.0293H53.8413V35.1543Z" fill="#FF6E40"/>
<path d="M25.0913 46.6543H16.4663V49.5293H25.0913V46.6543Z" fill="#FF6E40"/>
<path d="M32.2788 46.6543H27.9663V49.5293H32.2788V46.6543Z" fill="#26C6DA"/>
<path d="M40.9038 46.6543H35.1538V49.5293H40.9038V46.6543Z" fill="#FFCD02"/>
<path d="M55.2788 46.6543H43.7788V49.5293H55.2788V46.6543Z" fill="#2ECC71"/>
<path d="M61.0283 46.6543H58.1533V49.5293H61.0283V46.6543Z" fill="#FFCD02"/>
<path d="M19.3413 29.4043H16.4663V32.2793H19.3413V29.4043Z" fill="#26C6DA"/>
<path d="M45.2163 29.4043H22.2163V32.2793H45.2163V29.4043Z" fill="#FFCD02"/>
<path d="M61.0288 29.4043H48.0913V32.2793H61.0288V29.4043Z" fill="#2ECC71"/>
<path d="M22.2163 23.6543H16.4663V26.5293H22.2163V23.6543Z" fill="#FF6E40"/>
<path d="M36.5913 23.6543H25.0913V26.5293H36.5913V23.6543Z" fill="#FF6E40"/>
<path d="M43.7783 23.6543H39.4658V26.5293H43.7783V23.6543Z" fill="#FFCD02"/>
<path d="M63.9038 23.6543H46.6538V26.5293H63.9038V23.6543Z" fill="#26C6DA"/>
<path d="M38.0288 52.4043H16.4663V55.2793H38.0288V52.4043Z" fill="#FFCD02"/>
<path d="M52.4038 52.4043H40.9038V55.2793H52.4038V52.4043Z" fill="#26C6DA"/>
<path d="M63.9033 52.4043H55.2783V55.2793H63.9033V52.4043Z" fill="#FF6E40"/>
<path d="M22.2163 58.1543H16.4663V61.0293H22.2163V58.1543Z" fill="#26C6DA"/>
<path d="M33.7163 58.1543H25.0913V61.0293H33.7163V58.1543Z" fill="#2ECC71"/>
<path d="M49.5283 58.1543H36.5908V61.0293H49.5283V58.1543Z" fill="#FF6E40"/>
<path d="M58.1538 58.1543H52.4038V61.0293H58.1538V58.1543Z" fill="#FFCD02"/>
</svg>
