<svg width="40" height="40" xmlns="http://www.w3.org/2000/svg" fill="#828282">
  <path d="m20.2031,39.937118c-10.80472,0.039 -20.194093,-9.389605 -19.928468,-20.397405c0.25,-10.46091 9.545305,-19.358725 20.326555,-19.233725c10.6797,0.125 19.679231,9.452026 19.405831,20.420756c-0.2579,10.4297 -9.171118,19.272874 -19.803918,19.210374zm-2.2344,-9.647718c-0.9531,-0.3047 -1.9219,-0.5312 -2.8125,-0.9297c-1.8125,-0.8125 -2.9609,-2.2187 -3.3281,-4.1953c-0.2344,-1.2812 -0.1407,-2.5703 0.0156,-3.8515c0.1406,-1.1329 0.4687,-2.1875 1.3281,-3.0079c0.0625,-0.0625 0.0703,-0.2421 0.0313,-0.3359c-0.4141,-1.1328 -0.3672,-2.2656 -0.0313,-3.4141c0.1016,-0.3437 0.2656,-0.3828 0.5625,-0.289c0.7813,0.2422 1.4141,0.7109 1.9531,1.3047c0.2891,0.3125 0.5469,0.6562 0.8204,0.9843c1.625,-1.0546 6.2734,-1.0546 7.9765,-0.0156c0.3281,-0.3828 0.6406,-0.7812 0.9922,-1.1484c0.5234,-0.5391 1.1328,-0.9531 1.875,-1.1563c0.2422,-0.0703 0.375,-0.0156 0.4609,0.2422c0.3829,1.1328 0.4532,2.2656 0,3.3985c-0.0859,0.2265 -0.0781,0.375 0.1016,0.5468c0.5391,0.5157 0.8672,1.1641 1.0391,1.8907c0.3281,1.3515 0.3984,2.7343 0.3047,4.1093c-0.1016,1.4766 -0.6563,2.7735 -1.7422,3.8125c-0.9141,0.8672 -2.0078,1.3828 -3.211,1.6875c-0.4375,0.1094 -0.875,0.1875 -1.3437,0.2813c0.6015,0.9219 0.75,1.9219 0.7265,2.9687c-0.0234,1.1172 -0.0078,2.2422 -0.0078,3.3594c0,0.1328 0.0078,0.2734 0.0157,0.4141c7.1328,-1.2969 14.3359,-8.3985 13.5468,-18.2344c-0.7422,-9.38281 -9.0468,-16.58594 -18.6562,-15.66406c-8.97658,0.85937 -16.17971,8.86716 -15.36721,18.57036c0.77344,9.1796 8.21091,14.6796 14.03121,15.3984c0,-0.6641 0,-1.3281 0,-2c-0.3203,0.0469 -0.6093,0.0859 -0.8906,0.1172c-2.0937,0.2344 -3.7578,-0.7032 -4.6875,-2.5703c-0.5078,-1.0235 -1.0469,-2.0469 -2.04686,-2.7032c-0.10937,-0.0703 -0.17187,-0.2031 -0.26562,-0.3203c0.08594,-0.0625 0.125,-0.0937 0.17187,-0.1172c0.0625,-0.0234 0.125,-0.0312 0.1875,-0.039c0.70311,-0.0469 1.36721,0.0781 1.89061,0.5703c0.3438,0.3203 0.6563,0.7031 0.9141,1.1015c0.9844,1.5391 2.6797,2.1875 4.4062,1.6719c0.2344,-0.0703 0.3672,-0.1718 0.3907,-0.4453c0.0468,-0.7344 0.25,-1.4297 0.6484,-1.9922z"/>
</svg>
