<svg width="40" height="40" xmlns="http://www.w3.org/2000/svg" fill="#828282">
  <path stroke="null" d="m39.8959,20.0786c0,2.7187 -0.0547,5.8143 0.0157,8.533c0.1171,4.8125 -3.2753,8.4575 -7.1269,10.1137c-1.5468,0.6641 -3.1718,1.1633 -4.8515,1.1633c-5.2578,0.0078 -10.5973,0.0781 -15.8551,-0.0235c-3.96091,-0.0781 -7.66153,-1.6606 -9.99746,-4.9262c-1.22657,-1.7187 -1.8125,-4.1147 -1.8125,-6.2318c0,-5.6016 -0.0738,-11.2692 -0.0738,-16.8707c0,-4.57034 2.37416,-8.28225 6.32728,-10.36037c1.71875,-0.89844 3.95498,-1.35506 5.90028,-1.36288c5.1015,0 10.2109,-0.03125 15.3125,0.01563c3.9609,0.03125 7.6346,1.69448 10.0721,4.88198c1.3594,1.78125 2.0156,4.19713 2.0156,6.44714c0,2.8437 0.0738,5.7691 0.0738,8.6207zm-36.30215,0c0,2.8672 0,5.7265 0,8.5937c0,1.2813 0.29687,2.4844 0.96094,3.5703c1.74218,2.8516 4.375,4.2422 7.64061,4.2969c5.2422,0.0781 10.4922,0.0313 15.7422,0.0156c1.2891,0 2.5391,-0.2656 3.7031,-0.8203c3.1719,-1.5156 4.9453,-3.9297 4.9297,-7.5547c-0.0312,-5.5468 -0.0078,-11.0937 -0.0078,-16.6406c0,-1.57031 -0.4453,-3.00781 -1.375,-4.27344c-1.7969,-2.42968 -4.2813,-3.625 -7.25,-3.65625c-5.2344,-0.0625 -10.4687,-0.02343 -15.7031,-0.01562c-1.1172,0 -2.1953,0.22656 -3.24221,0.61719c-2.875,1.07031 -5.54688,3.78125 -5.42188,7.77342c0.09375,2.7031 0.02344,5.3985 0.02344,8.0938z"/>
  <path d="m20.125,28.3594c-5.039,0 -9.1016,-4.0156 -9.1094,-9.0156c-0.0078,-4.9219 4.086,-8.9532 9.0938,-8.9532c5.0234,-0.0078 9.1016,4.0157 9.1094,8.9766c0,4.9531 -4.0703,8.9844 -9.0938,8.9922zm0,-2.8906c3.4297,0 6.211,-2.7422 6.2031,-6.1172c-0.0078,-3.3438 -2.789,-6.0782 -6.2031,-6.0782c-3.4297,0 -6.2265,2.7266 -6.2265,6.0938c0.0078,3.375 2.7968,6.1094 6.2265,6.1016z"/>
  <path d="m30.2735,7.65625c1.0547,0 1.9141,0.89844 1.9141,2c-0.0079,1.10155 -0.875,1.99215 -1.9297,1.98435c-1.0391,-0.0078 -1.8907,-0.8984 -1.8907,-1.97654c-0.0078,-1.10156 0.8516,-2.00781 1.9063,-2.00781z"/>
</svg>
